<?xml version="1.0" standalone="no"?>
<!DOCTYPE svg PUBLIC "-//W3C//DTD SVG 1.1//EN" "http://www.w3.org/Graphics/SVG/1.1/DTD/svg11.dtd" >
<svg xmlns="http://www.w3.org/2000/svg">
<metadata></metadata>
<defs>
<font id="px_grotesk_lightregular" horiz-adv-x="1228" >
<font-face units-per-em="2048" ascent="1649" descent="-399" />
<missing-glyph horiz-adv-x="536" />
<glyph unicode="&#xfb01;" horiz-adv-x="1136" d="M821 0v928h-442v-928h-133v928h-174v116h174v349h383v-117h-250v-232h575v-1044h-133zM958 1231h-141v141h141v-141z" />
<glyph unicode="&#xfb02;" horiz-adv-x="1140" d="M379 1044h229v-116h-229v-928h-133v928h-174v116h174v349h708v-1393h-133v1276h-442v-232z" />
<glyph horiz-adv-x="0" />
<glyph horiz-adv-x="0" />
<glyph unicode="&#xd;" horiz-adv-x="0" />
<glyph unicode=" "  horiz-adv-x="536" />
<glyph unicode="&#x09;" horiz-adv-x="536" />
<glyph unicode="&#xa0;" horiz-adv-x="536" />
<glyph unicode="!" horiz-adv-x="534" d="M354 0h-174v174h174v-174zM238 324l-37 305v764h133v-764l-37 -305h-59z" />
<glyph unicode="&#x22;" horiz-adv-x="729" d="M287 887h-115v536h115v-536zM557 887h-115v536h115v-536z" />
<glyph unicode="#" horiz-adv-x="1241" d="M1073 348h-254l-49 -348h-113l50 348h-277l-49 -348h-113l49 348h-198v107h215l72 483h-240v106h254l51 349h113l-52 -349h277l51 349h113l-51 -349h200v-106h-215l-71 -483h237v-107zM449 455h276l68 483h-277z" />
<glyph unicode="$" horiz-adv-x="1167" d="M526 1587h103v-168q78 -8 145.5 -36.5t117.5 -78t82 -119t38 -161.5h-133q-6 70 -28 118t-55.5 79.5t-76.5 49t-90 23.5v-524l96 -25q76 -18 138.5 -48.5t106.5 -76t68.5 -107.5t24.5 -146q0 -90 -35 -161t-94.5 -122t-138 -80t-166.5 -33v-166h-103v168q-86 8 -158.5 36 t-129 79t-91 127t-43.5 180h134q10 -141 90 -212.5t198 -86.5v557l-75 21q-154 39 -231 138t-77 239q0 80 30 145.5t81 113.5t120.5 76.5t151.5 34.5v166zM926 362q0 59 -17.5 100.5t-49.5 71t-76 48t-99 32.5l-55 15v-533q63 6 117.5 26.5t94.5 55.5t62.5 81t22.5 103z M276 1059q0 -121 69 -178.5t181 -85.5v501q-51 -6 -96 -24.5t-79 -48t-54.5 -71.5t-20.5 -93z" />
<glyph unicode="%" horiz-adv-x="1597" d="M1180 1393h110l-872 -1393h-111zM629 1034q0 -78 -12.5 -146.5t-43 -119.5t-81 -80t-125.5 -29q-76 0 -126.5 29t-81 80t-43 119.5t-12.5 146.5t12.5 146.5t43 119t81 80t126.5 29.5t126 -29.5t80.5 -80t43 -119t12.5 -146.5zM367 743q72 0 112.5 40t40.5 112v279 q0 72 -41 111.5t-112 39.5q-72 0 -113 -40t-41 -111v-279q0 -72 41 -112t113 -40zM1493 358q0 -78 -12.5 -146.5t-43 -119.5t-80.5 -79.5t-126 -28.5t-126 28.5t-81 79.5t-43 120t-12 146q0 78 12 146.5t43 119t81 80t126 29.5t126 -29.5t80.5 -80t43 -119t12.5 -146.5z M1231 68q72 0 112.5 39.5t40.5 111.5v279q0 72 -40.5 111.5t-112.5 39.5t-113 -40t-41 -111v-279q0 -72 41 -111.5t113 -39.5z" />
<glyph unicode="&#x26;" horiz-adv-x="1232" d="M866 403v340h131v-507l185 -236h-168l-96 123q-94 -84 -189.5 -116t-210.5 -32q-178 0 -284.5 95.5t-106.5 273.5q0 59 13.5 107.5t38 88.5t60 74.5t78.5 69.5l101 80q-43 53 -78 98t-59.5 88t-39 86t-14.5 90q0 68 26 122.5t70 93t103 60t127 21.5q143 0 226 -76.5 t83 -216.5q0 -111 -70.5 -201.5t-191.5 -185.5l262 -340h4zM270 297q0 -49 20.5 -88t55.5 -65.5t79 -40t91 -13.5q104 0 184 32t142 97l-344 443l-166 -132q-31 -25 -46.5 -53t-15.5 -69v-111zM522 846q88 70 148.5 137.5t60.5 159.5q0 78 -48 122t-136 44q-86 0 -137.5 -46 t-51.5 -124q0 -68 48 -138.5t116 -154.5z" />
<glyph unicode="'" horiz-adv-x="458" d="M287 887h-115v536h115v-536z" />
<glyph unicode="(" horiz-adv-x="614" d="M260 344q0 -170 77 -344t208 -348h-113q-70 90 -126 186t-96 206t-61.5 237t-21.5 278q0 152 21.5 279t61.5 236.5t96 205.5t126 186h113q-139 -188 -212 -355t-73 -337v-430z" />
<glyph unicode=")" horiz-adv-x="612" d="M354 774q0 170 -72.5 337t-211.5 355h112q70 -90 126.5 -186t96 -205.5t61 -236.5t21.5 -279t-21.5 -278.5t-61 -236.5t-96 -206t-126.5 -186h-112q131 174 207.5 348t76.5 344v430z" />
<glyph unicode="*" horiz-adv-x="958" d="M514 983v-287h-70v287l-249 -143l-35 61l248 143l-248 144l35 61l249 -143v287h70v-287l250 143l35 -61l-250 -144l250 -143l-35 -61z" />
<glyph unicode="+" d="M92 469v106h465v469h115v-469h465v-106h-465v-469h-115v469h-465z" />
<glyph unicode="," horiz-adv-x="501" d="M338 0l-100 -174h-74l94 174h-94v174h174v-174z" />
<glyph unicode="-" horiz-adv-x="901" d="M164 618h573v-126h-573v126z" />
<glyph unicode="." horiz-adv-x="501" d="M338 0h-174v174h174v-174z" />
<glyph unicode="/" horiz-adv-x="888" d="M195 0h-140l639 1393h140z" />
<glyph unicode="0" d="M1087 696q0 -152 -19 -284.5t-71.5 -231t-144.5 -155t-238 -56.5q-145 0 -237 56.5t-144.5 155t-72 231.5t-19.5 284q0 152 19.5 285t72 231.5t144.5 154.5t237 56t237.5 -56t145 -154.5t71.5 -231.5t19 -285zM934 969q0 154 -86 244t-234 90q-147 0 -233 -90.5 t-86 -243.5v-545q0 -154 86 -244t233 -90t233.5 90t86.5 244v545z" />
<glyph unicode="1" d="M250 121h358v987h-358v121h358v164h133v-1272h318v-121h-809v121z" />
<glyph unicode="2" d="M315 121h750v-121h-899v150l571 557q37 37 67 68.5t51.5 68.5t33.5 80t12 100q0 127 -73.5 203t-202.5 76q-139 0 -223.5 -82t-88.5 -228h-137q2 96 36 176t93.5 136.5t141 87t178.5 30.5q195 0 305 -106.5t110 -292.5q0 -80 -20.5 -142.5t-53 -113.5t-72.5 -92t-79 -78 l-500 -473v-4z" />
<glyph unicode="3" d="M422 653v121h305q86 0 128 47t42 117v133q0 102 -73.5 168t-209.5 66q-145 0 -223 -76t-82 -193h-137q2 76 31.5 146.5t86 124t138.5 85t186 31.5q100 0 180 -28.5t136.5 -78.5t86.5 -121t30 -153q0 -127 -47.5 -200.5t-133.5 -122.5q102 -47 154.5 -128t52.5 -212 q0 -92 -33.5 -168t-95 -130t-147.5 -83t-191 -29q-96 0 -180 27t-147.5 80t-100.5 133t-39 186h137q2 -76 28 -133t71 -96t104.5 -58.5t126.5 -19.5q72 0 130.5 20.5t100.5 55.5t64.5 81t22.5 97v147q0 70 -48.5 117t-134.5 47h-319z" />
<glyph unicode="4" d="M752 0v356h-617v121l615 916h135v-916h200v-121h-200v-356h-133zM276 477h476v707z" />
<glyph unicode="5" d="M180 610l53 783h752v-121h-633l-33 -508q57 84 142.5 128t185.5 44q102 0 183 -34t136.5 -95.5t85 -149.5t29.5 -194q0 -113 -32.5 -204t-92 -155.5t-144.5 -99.5t-191 -35q-209 0 -325 103.5t-138 302.5h137q16 -133 96 -210t223 -77q68 0 125.5 21.5t99.5 58.5t65.5 89 t23.5 114v178q0 119 -83 193.5t-227 74.5q-98 0 -178 -56t-123 -151h-137z" />
<glyph unicode="6" d="M623 -31q-141 0 -233.5 50.5t-147 140.5t-76 218t-21.5 286q0 164 21.5 303t77 240.5t152 158.5t243.5 57q195 0 299 -98t123 -268h-137q-14 106 -83 177t-212 71q-80 0 -142.5 -30t-103.5 -82t-62.5 -122t-21.5 -149v-181q55 86 145.5 130t206.5 44q109 0 193 -33.5 t140 -95t86 -144.5t30 -181q0 -80 -26.5 -167t-85 -160t-148.5 -119t-217 -46zM623 86q76 0 136 25.5t102 68.5t63.5 98.5t21.5 114.5v119q0 59 -21.5 111.5t-63.5 90.5t-102.5 60.5t-135.5 22.5q-78 0 -137.5 -22.5t-101.5 -60.5t-63.5 -90.5t-21.5 -111.5v-119 q0 -59 21.5 -114.5t63.5 -98.5t101.5 -68.5t137.5 -25.5z" />
<glyph unicode="7" d="M479 0h-149l594 1272h-740v121h885v-121z" />
<glyph unicode="8" d="M614 -31q-96 0 -183 24.5t-152.5 74t-104.5 125t-39 180.5q0 129 68.5 219t195.5 133q-117 47 -170 127t-53 195q0 88 36 157.5t95.5 118.5t139 74.5t167.5 25.5t168 -25.5t139.5 -74.5t95.5 -118.5t36 -157.5q0 -115 -53.5 -195t-170.5 -127q127 -43 196 -133t69 -219 q0 -104 -39 -180t-104.5 -125.5t-153 -74t-183.5 -24.5zM903 1096q0 86 -76.5 146.5t-212.5 60.5q-135 0 -211.5 -60.5t-76.5 -146.5v-117q0 -88 76.5 -147.5t211.5 -59.5t212 59.5t77 147.5v117zM285 309q0 -90 84 -154.5t245 -64.5q162 0 246 64.5t84 154.5v135 q0 90 -84 154t-246 64t-245.5 -63.5t-83.5 -154.5v-135z" />
<glyph unicode="9" d="M600 1423q143 0 236.5 -49t147.5 -139t75.5 -218t21.5 -286q0 -172 -20.5 -312t-74.5 -240.5t-147.5 -155t-236.5 -54.5q-199 0 -309.5 99.5t-128.5 269.5h137q14 -109 90 -179.5t207 -70.5q80 0 142.5 29.5t103.5 80t62.5 120t21.5 149.5v184q-57 -88 -150.5 -131 t-210.5 -43q-109 0 -190.5 34t-137 95.5t-84 145.5t-28.5 184q0 80 27.5 166t85 157.5t146.5 117.5t214 46zM604 1305q-78 0 -137 -26t-101 -69t-63.5 -98t-21.5 -115v-116q0 -59 21.5 -111.5t63.5 -91.5t101 -60.5t137 -21.5q76 0 136.5 21.5t102.5 60.5t63.5 91t21.5 112 v118q0 59 -21.5 114.5t-63.5 97.5t-102.5 68t-136.5 26z" />
<glyph unicode=":" horiz-adv-x="501" d="M338 0h-174v174h174v-174zM338 870h-174v174h174v-174z" />
<glyph unicode=";" horiz-adv-x="501" d="M338 870h-174v174h174v-174zM338 0l-100 -174h-74l94 174h-94v174h174v-174z" />
<glyph unicode="&#x3c;" d="M1120 922l-934 -400l934 -399v-123l-1044 449v147l1044 448v-122z" />
<glyph unicode="=" d="M92 680v106h1045v-106h-1045zM92 258v107h1045v-107h-1045z" />
<glyph unicode="&#x3e;" d="M106 1044l1045 -448v-147l-1045 -449v123l934 399l-934 400v122z" />
<glyph unicode="?" horiz-adv-x="1015" d="M571 0h-174v174h174v-174zM780 1047q0 113 -70.5 186.5t-195.5 73.5q-133 0 -207 -79t-84 -202h-133q6 90 41 164t90 126t130 79.5t165 27.5q88 0 162 -28.5t126 -78.5t80.5 -118t28.5 -147q0 -127 -53 -212t-129 -145q-47 -37 -81 -67.5t-55.5 -60t-32.5 -63.5t-11 -77 v-61h-133v61q0 106 49 183t149 157q86 70 125 132.5t39 148.5z" />
<glyph unicode="@" horiz-adv-x="1695" d="M723 274h246v496h-246v-496zM590 158v729h512v-613h235v811h-983v-1126h768v-117h-901v1360h1249v-1044h-880z" />
<glyph unicode="A" horiz-adv-x="1275" d="M930 362h-586l-123 -362h-151l481 1393h174l481 -1393h-153zM635 1233l-250 -748h504l-246 748h-8z" />
<glyph unicode="B" horiz-adv-x="1310" d="M346 1260v-474h459q86 0 134 45.5t48 122.5v146q0 78 -48 119t-134 41h-459zM930 727q113 -27 177 -109.5t64 -209.5q0 -215 -107.5 -311.5t-307.5 -96.5h-553v1393h553q88 0 159.5 -18.5t121.5 -58.5t77 -104.5t27 -156.5q0 -119 -56.5 -205t-154.5 -123zM1018 494 q0 78 -55.5 118.5t-135.5 40.5h-481v-520h469q90 0 146.5 45t56.5 127v189z" />
<glyph unicode="C" horiz-adv-x="1296" d="M688 -31q-270 0 -411.5 182.5t-141.5 532.5q0 164 33 300t101.5 233.5t173 151.5t245.5 54q96 0 179 -28.5t146.5 -84t102.5 -134t49 -179.5h-143q-8 76 -38 132.5t-76 91t-105.5 52t-128.5 17.5q-84 0 -152.5 -30.5t-118 -83t-77 -124t-27.5 -151.5v-409 q0 -84 29.5 -156t80 -124t118 -81t143.5 -29q160 0 257 72t113 232h144q-8 -98 -46 -179.5t-102.5 -137.5t-153 -88t-194.5 -32z" />
<glyph unicode="D" horiz-adv-x="1349" d="M633 1393q299 0 438 -169t139 -528q0 -358 -139 -527t-438 -169h-430v1393h430zM346 1260v-1127h281q199 0 309.5 94.5t110.5 264.5v409q0 170 -110 264.5t-308 94.5h-283z" />
<glyph unicode="E" horiz-adv-x="1206" d="M203 1393h872v-133h-729v-484h635v-133h-635v-510h729v-133h-872v1393z" />
<glyph unicode="F" horiz-adv-x="1110" d="M203 1393h803v-133h-660v-484h610v-133h-610v-643h-143v1393z" />
<glyph unicode="G" horiz-adv-x="1355" d="M674 -31q-262 0 -400.5 187.5t-138.5 527.5q0 166 33 302t101.5 233.5t175 150.5t251.5 53q100 0 185.5 -29.5t149 -85t102 -134t49.5 -177.5h-144q-16 147 -109 220t-247 73q-84 0 -153.5 -29.5t-121 -82t-80 -123t-28.5 -154.5v-409q0 -86 29.5 -157t80 -123t120 -81 t149.5 -29q178 0 280.5 97.5t102.5 275.5v115h-336v133h479v-723h-135l-8 158q-53 -88 -153.5 -138.5t-233.5 -50.5z" />
<glyph unicode="H" horiz-adv-x="1411" d="M1065 649h-719v-649h-143v1393h143v-611h719v611h143v-1393h-143v649z" />
<glyph unicode="I" horiz-adv-x="548" d="M203 1393h143v-1393h-143v1393z" />
<glyph unicode="J" horiz-adv-x="839" d="M637 0h-592v133h449v1260h143v-1393z" />
<glyph unicode="K" horiz-adv-x="1234" d="M350 741l600 652h191l-617 -652l662 -741h-180zM346 0h-143v1393h143v-1393z" />
<glyph unicode="L" horiz-adv-x="1019" d="M203 1393h143v-1260h631v-133h-774v1393z" />
<glyph unicode="M" horiz-adv-x="1697" d="M848 231h8l418 1162h221v-1393h-137v1204h-8l-441 -1204h-118l-443 1204h-8v-1204h-137v1393h225z" />
<glyph unicode="N" horiz-adv-x="1411" d="M1067 162v1231h141v-1393h-227l-629 1233h-8v-1233h-141v1393h227l629 -1231h8z" />
<glyph unicode="O" horiz-adv-x="1425" d="M1290 696q0 -162 -31.5 -295t-101.5 -229t-179.5 -149.5t-264.5 -53.5q-156 0 -265.5 53.5t-179 149.5t-101.5 229.5t-32 294.5q0 162 32 295t101.5 229.5t179 149.5t265.5 53t265 -53t179 -149.5t101.5 -229.5t31.5 -295zM713 102q88 0 163.5 27t131 77t87 121.5 t31.5 161.5v414q0 88 -31.5 160t-87 123t-131 77.5t-163.5 26.5q-90 0 -166 -26.5t-131.5 -77.5t-86 -123t-30.5 -160v-414q0 -90 30.5 -160.5t86 -121.5t131.5 -78t166 -27z" />
<glyph unicode="P" horiz-adv-x="1222" d="M346 530v-530h-143v1393h526q217 0 306 -102.5t89 -321.5q0 -119 -27.5 -203t-79.5 -136t-129 -76t-177 -24h-365zM776 664q86 0 140.5 51t54.5 129v243q0 78 -51.5 125.5t-143.5 47.5h-430v-596h430z" />
<glyph unicode="Q" horiz-adv-x="1437" d="M1083 92q-68 -59 -158.5 -91t-211.5 -32q-156 0 -265.5 53.5t-179 149.5t-101.5 229.5t-32 294.5q0 162 32 295t101.5 229.5t179 149.5t265.5 53t265 -53t179 -149.5t101.5 -229.5t31.5 -295q0 -154 -28.5 -280.5t-90.5 -220.5l201 -195l-96 -94zM713 102q88 0 163.5 27 t131 77t87 121.5t31.5 161.5v414q0 88 -31.5 160t-87 123t-131 77.5t-163.5 26.5q-90 0 -166 -26.5t-131.5 -77.5t-86 -123t-30.5 -160v-414q0 -90 30.5 -160.5t86 -121.5t131.5 -78t166 -27z" />
<glyph unicode="R" horiz-adv-x="1257" d="M346 606v-606h-143v1393h526q217 0 306 -101.5t89 -287.5q0 -188 -88 -280.5t-239 -113.5l329 -610h-163l-322 606h-295zM776 733q86 0 140.5 49t54.5 136v169q0 86 -54.5 129.5t-140.5 43.5h-430v-527h430z" />
<glyph unicode="S" horiz-adv-x="1243" d="M612 1294q-145 0 -231 -60t-86 -177q0 -63 17.5 -103.5t50 -66t78.5 -42t104 -32.5l231 -65q182 -51 267 -137.5t85 -243.5q0 -92 -37.5 -166t-103 -125t-158 -79t-198.5 -28q-109 0 -199 25.5t-157.5 80t-110.5 136.5t-55 195h143q16 -158 118.5 -233t256.5 -75 q76 0 142.5 17.5t113.5 51.5t74.5 83t27.5 112q0 59 -16.5 99.5t-48 67t-75.5 44t-100 33.5l-276 76q-168 47 -242.5 137t-74.5 238q0 78 31.5 145.5t91 116.5t144.5 76.5t193 27.5q100 0 184.5 -25.5t147 -77.5t101 -129t49.5 -177h-144q-6 76 -35.5 130t-75.5 87t-105 48 t-122 15z" />
<glyph unicode="T" horiz-adv-x="1064" d="M45 1393h975v-133h-416v-1260h-143v1260h-416v133z" />
<glyph unicode="U" horiz-adv-x="1388" d="M1057 1393h141v-897q0 -123 -37 -220.5t-103.5 -165t-159.5 -104.5t-204 -37t-204 37t-159.5 104.5t-103.5 165t-37 220.5v897h144v-912q0 -86 26.5 -156.5t74.5 -120.5t113.5 -77t145.5 -27t146.5 27t115 76t75 119.5t26.5 158.5v912z" />
<glyph unicode="V" horiz-adv-x="1251" d="M618 160h9l387 1233h151l-450 -1393h-180l-449 1393h154z" />
<glyph unicode="W" horiz-adv-x="1873" d="M563 164l281 1229h184l285 -1229h8l299 1229h156l-365 -1393h-192l-279 1176h-8l-277 -1176h-192l-365 1393h154l303 -1229h8z" />
<glyph unicode="X" horiz-adv-x="1181" d="M508 711l-420 682h166l336 -564l346 564h160l-422 -682l440 -711h-166l-358 594l-359 -594h-168z" />
<glyph unicode="Y" horiz-adv-x="1175" d="M57 1393h160l371 -697l377 697h155l-461 -840v-553h-143v553z" />
<glyph unicode="Z" horiz-adv-x="1175" d="M1059 1260l-787 -1127h783v-133h-951v133l789 1127h-756v133h922v-133z" />
<glyph unicode="[" horiz-adv-x="673" d="M573 1466v-110h-256v-1594h256v-110h-378v1814h378z" />
<glyph unicode="\" horiz-adv-x="888" d="M55 1393h140l639 -1393h-140z" />
<glyph unicode="]" horiz-adv-x="673" d="M479 1466v-1814h-379v110h256v1594h-256v110h379z" />
<glyph unicode="^" d="M557 1393h115l424 -795h-131l-353 657l-346 -657h-133z" />
<glyph unicode="_" horiz-adv-x="1290" d="M164 -113h962v-82h-962v82z" />
<glyph unicode="`" horiz-adv-x="581" d="M348 1174h-108l-215 249h155z" />
<glyph unicode="a" horiz-adv-x="1105" d="M776 717q0 70 -18.5 115t-50 71.5t-77.5 37.5t-102 11q-111 0 -178 -51t-67 -158h-133q0 74 27.5 133.5t78.5 102.5t122 66.5t154 23.5q84 0 154 -21.5t119 -64.5t75.5 -110.5t26.5 -159.5v-596h154v-117h-268l-5 203h-6q-43 -111 -129 -169.5t-202 -58.5 q-78 0 -144.5 24t-107.5 69q-41 41 -62.5 99t-21.5 120q0 123 64.5 203.5t201.5 93.5l395 37v96zM342 467q-47 -4 -66.5 -29.5t-19.5 -72.5v-115q0 -80 58.5 -119t158.5 -39q70 0 126 26.5t96 74t60.5 115t20.5 147.5v51z" />
<glyph unicode="b" horiz-adv-x="1198" d="M315 436q0 -74 21.5 -137t63.5 -109.5t100.5 -72t132.5 -25.5q70 0 124 21.5t93 58.5t59.5 86t20.5 107v315q0 57 -20.5 106.5t-59.5 86t-93.5 58t-123.5 21.5q-74 0 -132.5 -25.5t-100.5 -71.5t-63.5 -109.5t-21.5 -137.5v-172zM182 0v1393h133v-529q102 205 342 205 q100 0 178 -40t131.5 -112.5t80 -173t26.5 -221.5t-26.5 -222t-79 -173t-130 -112t-180.5 -40q-111 0 -200.5 51.5t-141.5 153.5v-180h-133z" />
<glyph unicode="c" horiz-adv-x="1071" d="M817 713q-6 63 -29.5 108t-60.5 75t-84 43t-98 13q-53 0 -102.5 -19.5t-87.5 -55t-61.5 -88t-23.5 -115.5v-303q0 -59 21.5 -110.5t59.5 -88.5t88 -58.5t108 -21.5q55 0 104 16.5t87 48t60.5 78t26.5 105.5h133q-10 -92 -45.5 -160.5t-91 -114t-125 -68t-145.5 -22.5 q-111 0 -190.5 41t-132 113t-77 171t-24.5 216q0 125 27.5 227.5t81 174t134.5 111.5t185 40q80 0 148.5 -22.5t121 -67.5t86 -111.5t39.5 -154.5h-133z" />
<glyph unicode="d" horiz-adv-x="1198" d="M883 608q0 74 -21.5 137.5t-63.5 109.5t-100.5 71.5t-132.5 25.5q-68 0 -123 -21.5t-94 -58t-59.5 -86t-20.5 -106.5v-315q0 -57 20.5 -106.5t59.5 -86.5t94.5 -58.5t122.5 -21.5q74 0 132.5 25.5t100.5 72t63.5 109.5t21.5 137v172zM883 0v180q-51 -102 -139.5 -153.5 t-198.5 -51.5q-104 0 -182 40t-131.5 112t-80 173t-26.5 222t26.5 221.5t80 173t130 112.5t179.5 40q240 0 342 -205v529h133v-1393h-133z" />
<glyph unicode="e" horiz-adv-x="1099" d="M838 676q0 63 -22.5 115.5t-61.5 87t-91.5 54t-109.5 19.5t-109.5 -19.5t-91.5 -54t-61.5 -87t-22.5 -115.5v-78h570v78zM971 322q-10 -84 -46 -148.5t-92.5 -109t-127 -67t-150.5 -22.5q-111 0 -192.5 41t-134 113t-78 172t-25.5 221q0 119 26.5 219.5t81 173t134 113.5 t186.5 41q106 0 186 -41t133.5 -109.5t81 -158.5t27.5 -191v-88h-713v-112q0 -63 24.5 -114.5t64.5 -87.5t92.5 -55.5t107.5 -19.5q111 0 188.5 54.5t92.5 175.5h133z" />
<glyph unicode="f" horiz-adv-x="671" d="M379 1044h229v-116h-229v-928h-133v928h-174v116h174v349h383v-117h-250v-232z" />
<glyph unicode="g" horiz-adv-x="1198" d="M1016 31q0 -109 -36 -190t-95.5 -134t-137 -79.5t-161.5 -26.5q-80 0 -153 15t-129 51t-94 97.5t-48 153.5h133q12 -98 81.5 -149.5t201.5 -51.5q131 0 218 77t87 235v151q-51 -102 -139.5 -153.5t-198.5 -51.5q-104 0 -182 40t-131.5 112t-80 173t-26.5 222t26.5 221.5 t80 173t130 112.5t179.5 40q240 0 342 -205v180h133v-1013zM883 608q0 74 -21.5 137.5t-63.5 109.5t-100.5 71.5t-132.5 25.5q-68 0 -123 -21.5t-94 -58t-59.5 -86t-20.5 -106.5v-315q0 -57 20.5 -106.5t59.5 -86.5t94.5 -58.5t122.5 -21.5q74 0 132.5 25.5t100.5 72 t63.5 109.5t21.5 137v172z" />
<glyph unicode="h" horiz-adv-x="1148" d="M844 676q0 129 -50.5 202.5t-183.5 73.5q-66 0 -119 -25.5t-93 -71.5t-61.5 -110.5t-21.5 -140.5v-604h-133v1393h133v-531q43 98 123 152.5t199 54.5q76 0 138.5 -20.5t107.5 -65.5t69.5 -115.5t24.5 -171.5v-696h-133v676z" />
<glyph unicode="i" horiz-adv-x="497" d="M182 0v1044h133v-1044h-133zM319 1231h-141v141h141v-141z" />
<glyph unicode="j" horiz-adv-x="522" d="M207 1044h133v-1392h-375v117h242v1275zM344 1231h-141v141h141v-141z" />
<glyph unicode="k" horiz-adv-x="1011" d="M319 584l426 460h175l-441 -462l477 -582h-159zM315 0h-133v1393h133v-1393z" />
<glyph unicode="l" horiz-adv-x="505" d="M186 0v1393h133v-1393h-133z" />
<glyph unicode="m" horiz-adv-x="1716" d="M182 1044h133v-182q35 94 108 150.5t185 56.5q106 0 186 -53t115 -172q33 100 112 162.5t198 62.5q70 0 129 -20.5t103 -65.5t68.5 -115.5t24.5 -171.5v-696h-133v678q0 129 -50 201.5t-167 72.5q-55 0 -103.5 -25.5t-84 -71.5t-56 -110.5t-20.5 -140.5v-604h-133v678 q0 129 -50.5 201.5t-166.5 72.5q-55 0 -103.5 -25.5t-84.5 -71.5t-56.5 -110.5t-20.5 -140.5v-604h-133v1044z" />
<glyph unicode="n" horiz-adv-x="1148" d="M844 672q0 129 -50.5 204.5t-183.5 75.5q-66 0 -119 -26.5t-93 -72.5t-61.5 -111.5t-21.5 -141.5v-600h-133v1044h133v-182q43 98 123 152.5t199 54.5q76 0 138.5 -20.5t107.5 -65.5t69.5 -115.5t24.5 -171.5v-696h-133v672z" />
<glyph unicode="o" horiz-adv-x="1146" d="M125 522q0 119 26.5 219.5t82 173t140.5 113.5t199 41q115 0 200 -41t140.5 -113.5t82 -173t26.5 -219.5t-26.5 -219t-82 -173t-140.5 -114t-200 -41t-199.5 41t-140 114t-82 173t-26.5 219zM879 680q0 61 -24 111.5t-64.5 87t-96 56t-121.5 19.5t-121 -19.5t-96 -56 t-64.5 -87t-23.5 -111.5v-315q0 -61 23.5 -111.5t64.5 -87.5t96.5 -56.5t120.5 -19.5q66 0 121.5 19.5t96 56.5t64.5 87t24 112v315z" />
<glyph unicode="p" horiz-adv-x="1198" d="M315 436q0 -74 21.5 -137t63.5 -109.5t100.5 -72t132.5 -25.5q70 0 124 21.5t93 58.5t59.5 86t20.5 107v315q0 57 -20.5 106.5t-59.5 86t-93.5 58t-123.5 21.5q-74 0 -132.5 -25.5t-100.5 -71.5t-63.5 -109.5t-21.5 -137.5v-172zM182 -348v1392h133v-180q102 205 342 205 q100 0 178 -40t131.5 -112.5t80 -173t26.5 -221.5t-26.5 -222t-79 -173t-130 -112t-180.5 -40q-111 0 -200.5 51.5t-141.5 153.5v-528h-133z" />
<glyph unicode="q" horiz-adv-x="1198" d="M883 608q0 74 -21.5 137.5t-63.5 109.5t-100.5 71.5t-132.5 25.5q-68 0 -123 -21.5t-94 -58t-59.5 -86t-20.5 -106.5v-315q0 -57 20.5 -106.5t59.5 -86.5t94.5 -58.5t122.5 -21.5q74 0 132.5 25.5t100.5 72t63.5 109.5t21.5 137v172zM883 -348v528 q-51 -102 -139.5 -153.5t-198.5 -51.5q-104 0 -182 40t-131.5 112t-80 173t-26.5 222t26.5 221.5t80 173t130 112.5t179.5 40q240 0 342 -205v180h133v-1392h-133z" />
<glyph unicode="r" horiz-adv-x="700" d="M182 1044h461v-116h-328v-928h-133v1044z" />
<glyph unicode="s" horiz-adv-x="1013" d="M610 575q147 -31 221 -101.5t74 -197.5q0 -66 -26.5 -121t-77.5 -95t-124 -62.5t-165 -22.5q-84 0 -157.5 22.5t-127 67t-85 108t-33.5 146.5h133q4 -113 84 -170t188 -57q53 0 100.5 11.5t82 35t55 57t20.5 78.5q0 78 -47 118t-162 65l-172 37q-117 25 -186.5 91 t-69.5 191q0 63 26.5 116.5t74 92.5t115 61.5t147.5 22.5q70 0 136 -18.5t118.5 -58.5t85 -101.5t34.5 -147.5h-133q-4 111 -73.5 160t-167.5 49q-104 0 -169 -48t-65 -126t45 -113.5t125 -52.5z" />
<glyph unicode="t" horiz-adv-x="710" d="M379 117h250v-117h-383v928h-174v116h174v349h133v-349h250v-116h-250v-811z" />
<glyph unicode="u" horiz-adv-x="1140" d="M305 371q0 -129 49 -204t178 -75q63 0 116.5 25.5t92.5 73t61.5 112t22.5 141.5v600h133v-1044h-133v182q-43 -98 -121.5 -152.5t-195.5 -54.5q-74 0 -135.5 20.5t-106.5 65.5t-69.5 116t-24.5 171v696h133v-673z" />
<glyph unicode="v" horiz-adv-x="1015" d="M512 195l293 849h145l-375 -1044h-135l-374 1044h145l293 -849h8z" />
<glyph unicode="w" horiz-adv-x="1521" d="M465 195l213 849h170l215 -849h8l234 849h141l-318 -1044h-135l-227 879h-8l-228 -879h-137l-317 1044h145l236 -849h8z" />
<glyph unicode="x" horiz-adv-x="1011" d="M420 541l-328 503h162l250 -397l254 397h162l-332 -493l362 -551h-162l-282 442l-281 -442h-162z" />
<glyph unicode="y" horiz-adv-x="1044" d="M530 195l301 849h148l-512 -1392h-313v117h221l84 231l-387 1044h153l297 -849h8z" />
<glyph unicode="z" horiz-adv-x="958" d="M852 117v-117h-750v117l566 811h-535v116h696v-116l-565 -811h588z" />
<glyph unicode="{" horiz-adv-x="749" d="M270 502h-194v114h194v-114h123v-740h256v-110h-379v850zM270 1466h379v-110h-256v-740h-123v850z" />
<glyph unicode="|" horiz-adv-x="503" d="M190 1741h123v-2089h-123v2089z" />
<glyph unicode="}" horiz-adv-x="749" d="M479 616h195v-114h-195v114h-123v740h-256v110h379v-850zM479 -348h-379v110h256v740h123v-850z" />
<glyph unicode="~" d="M1116 594q0 -100 -71.5 -158.5t-178.5 -58.5q-37 0 -67.5 6t-64.5 18.5t-72.5 32t-90.5 45.5q-47 25 -77.5 41.5t-55 26.5t-45 14t-45.5 4q-53 0 -89 -31.5t-36 -84.5h-112q0 100 71.5 158.5t177.5 58.5q37 0 68 -6.5t64.5 -18.5t72.5 -31.5t90 -46.5q45 -25 77 -41 t56.5 -26.5t45 -14.5t45.5 -4q53 0 89 32t36 85h112z" />
<glyph unicode="&#xa1;" horiz-adv-x="505" d="M340 870h-174v174h174v-174zM283 721l36 -305v-764h-133v764l37 305h60z" />
<glyph unicode="&#xa2;" d="M578 -20q-98 8 -168 52t-116 114.5t-67.5 165t-21.5 204.5q0 233 94 380.5t279 168.5v168h102v-166q141 -12 237.5 -101t110.5 -253h-133q-10 111 -70.5 166t-144.5 69v-852q92 14 154.5 77t68.5 167h133q-10 -86 -40.5 -150.5t-79 -109.5t-108.5 -70.5t-128 -32.5v-165 h-102v168zM348 371q0 -53 17.5 -100.5t48 -83t72.5 -60.5t92 -33v854q-92 -16 -161 -86.5t-69 -187.5v-303z" />
<glyph unicode="&#xa3;" d="M129 121h184v547h-184v120h184v242q0 76 23.5 146.5t73 126t123 88t172.5 32.5q98 0 171.5 -31.5t123 -85t73 -124t23.5 -148.5h-133q0 129 -63.5 200t-192.5 71t-195 -76t-66 -205v-236h365v-120h-365v-547h623v-121h-940v121z" />
<glyph unicode="&#xa4;" d="M905 227q-59 -47 -134 -73.5t-157 -26.5q-84 0 -157.5 26.5t-132.5 73.5l-111 -110l-80 80l111 110q-47 59 -74 133t-27 158q0 82 27 156.5t74 134.5l-111 110l80 80l111 -110q59 47 132.5 73.5t157.5 26.5q82 0 157 -26.5t134 -73.5l111 110l80 -80l-111 -110 q47 -59 73.5 -134t26.5 -157q0 -84 -26.5 -157.5t-73.5 -133.5l111 -110l-80 -80zM254 598q0 -74 28.5 -139.5t78 -114.5t115 -77.5t138.5 -28.5q74 0 139.5 28.5t115 77.5t78 114.5t28.5 139.5t-28.5 139.5t-78 114.5t-115 77.5t-139.5 28.5t-139 -28.5t-114.5 -77.5 t-78 -114.5t-28.5 -139.5z" />
<glyph unicode="&#xa5;" d="M199 465h348v141h-348v101h270l-340 686h147l336 -686l340 686h148l-344 -686h270v-101h-346v-141h346v-100h-346v-365h-133v365h-348v100z" />
<glyph unicode="&#xa6;" horiz-adv-x="466" d="M172 506h123v-854h-123v854zM172 1741h123v-854h-123v854z" />
<glyph unicode="&#xa7;" horiz-adv-x="1173" d="M223 143v1250h787v-119h-654v-371h656v-1249h-791v119h658v370h-656zM356 262h523v522h-523v-522z" />
<glyph unicode="&#xa8;" horiz-adv-x="577" d="M186 1212h-139v140h139v-140zM465 1212h-139v140h139v-140z" />
<glyph unicode="&#xa9;" horiz-adv-x="1712" d="M129 696q0 150 57.5 283t155.5 231.5t230.5 155.5t283.5 57q150 0 283 -57t231 -155.5t155.5 -231.5t57.5 -283q0 -152 -57.5 -283.5t-155.5 -230t-231 -156t-283 -57.5q-152 0 -284 57.5t-230 156t-155.5 230t-57.5 283.5zM219 690q0 -133 50 -248.5t137.5 -202.5 t203 -137.5t248.5 -50.5q131 0 248 50.5t205 137.5t138 202.5t50 248.5q0 131 -50 248t-138 205t-205 138t-248 50q-133 0 -248.5 -50t-203 -138t-137.5 -205t-50 -248zM1034 825q-6 90 -58 127t-122 37q-72 0 -127 -50t-55 -140v-205q0 -86 52 -138.5t130 -52.5 q72 0 126 41t60 127h95q-14 -127 -93 -187t-184 -60q-74 0 -128 27.5t-90 76.5t-53.5 116.5t-17.5 147.5q0 172 75 274.5t216 102.5q104 0 181 -61.5t87 -182.5h-94z" />
<glyph unicode="&#xaa;" horiz-adv-x="800" d="M659 758v-82h-161l-2 100h-4q-45 -113 -170 -112q-88 0 -134 49q-43 47 -43 110q0 66 41 110t123 52l174 16v43q0 66 -30.5 88.5t-79.5 22.5t-81 -22.5t-32 -75.5h-96q0 78 60.5 125t150.5 47q86 0 145.5 -43t59.5 -142v-286h79zM346 739q63 0 100 45t37 121v25l-192 -19 q-45 -4 -45 -51v-49q0 -37 26.5 -54.5t73.5 -17.5z" />
<glyph unicode="&#xab;" horiz-adv-x="915" d="M659 145l-219 381l219 381h113l-199 -381l199 -381h-113zM348 145l-219 381l219 381h113l-199 -381l199 -381h-113z" />
<glyph unicode="&#xac;" d="M1018 680h-930v106h1045v-540h-115v434z" />
<glyph unicode="&#xad;" horiz-adv-x="901" d="M164 618h573v-126h-573v126z" />
<glyph unicode="&#xae;" horiz-adv-x="1712" d="M129 696q0 150 57.5 283t155.5 231.5t230.5 155.5t283.5 57q150 0 283 -57t231 -155.5t155.5 -231.5t57.5 -283q0 -152 -57.5 -283.5t-155.5 -230t-231 -156t-283 -57.5q-152 0 -284 57.5t-230 156t-155.5 230t-57.5 283.5zM709 621v-273h-93v696h299q100 0 153.5 -53 t53.5 -157q0 -90 -41 -142.5t-114 -64.5l161 -279h-106l-152 273h-161zM944 700q39 0 57.5 24t18.5 56v109q0 76 -76 76h-235v-265h235zM219 690q0 -133 50 -248.5t137.5 -202.5t203 -137.5t248.5 -50.5q131 0 248 50.5t205 137.5t138 202.5t50 248.5q0 131 -50 248 t-138 205t-205 138t-248 50q-133 0 -248.5 -50t-203 -138t-137.5 -205t-50 -248z" />
<glyph unicode="&#xaf;" horiz-adv-x="634" d="M20 1356h592v-88h-592v88z" />
<glyph unicode="&#xb0;" horiz-adv-x="827" d="M127 1137q0 59 22.5 111t61.5 91t91 61.5t112 22.5q59 0 111.5 -22.5t91 -61.5t61 -91t22.5 -111t-22.5 -111.5t-61 -91.5t-91 -61.5t-111.5 -22.5t-111.5 22.5t-91.5 61.5t-61.5 91.5t-22.5 111.5zM193 1137q0 -47 17 -87t47 -70t70 -47.5t87 -17.5q45 0 86 17.5 t70.5 47.5t47 70t17.5 87q0 45 -17.5 86t-47 70.5t-70.5 47t-86 17.5q-47 0 -87 -17.5t-70 -47t-47 -70.5t-17 -86z" />
<glyph unicode="&#xb1;" d="M92 575v107h465v362h115v-362h465v-107h-465v-362h-115v362h-465zM1137 0h-1045v106h1045v-106z" />
<glyph unicode="&#xb2;" horiz-adv-x="817" d="M301 762h356v-86h-497v82l297 284q43 41 64.5 76t21.5 82q0 55 -33 90t-98 35q-63 0 -103.5 -38t-40.5 -105h-102q0 111 70.5 169t177.5 58q109 0 170 -56.5t61 -154.5q0 -72 -35 -125t-78 -94l-231 -215v-2z" />
<glyph unicode="&#xb3;" horiz-adv-x="784" d="M297 999v86h152q37 0 57 21.5t20 54.5v66q0 47 -37.5 72.5t-91.5 25.5q-63 0 -98 -32.5t-39 -88.5h-102q0 41 17.5 78t48 65.5t75.5 45t100 16.5q109 0 169.5 -54.5t60.5 -140.5q0 -66 -28 -105.5t-75 -61.5q117 -41 117 -170q0 -104 -71.5 -161t-182.5 -57 q-102 0 -174 54.5t-76 171.5h101q6 -74 46 -108t103 -34q66 0 109 32t43 79v68q0 33 -20.5 55t-57.5 22h-166z" />
<glyph unicode="&#xb4;" horiz-adv-x="581" d="M401 1423h156l-215 -249h-109z" />
<glyph unicode="&#xb5;" horiz-adv-x="1204" d="M338 -348h-133v1392h133v-698q0 -117 52 -185.5t175 -68.5q63 0 116.5 25.5t92.5 73t61.5 112t22.5 141.5v600h133v-1044h-133v182q-43 -98 -122 -152.5t-195 -54.5q-59 0 -110.5 18.5t-92.5 59.5v-401z" />
<glyph unicode="&#xb6;" horiz-adv-x="1189" d="M969 1393v-1577h-123v1470h-260v-1470h-123v921h-348v656h854z" />
<glyph unicode="&#xb7;" horiz-adv-x="501" d="M338 438h-174v174h174v-174z" />
<glyph unicode="&#xb8;" horiz-adv-x="593" d="M174 -184h123v112h123v-225h-246v113z" />
<glyph unicode="&#xb9;" horiz-adv-x="618" d="M444 676h-102v528h-227v86h227v103h102v-717z" />
<glyph unicode="&#xba;" horiz-adv-x="761" d="M522 1030q0 53 -42 87t-99 34t-99 -34t-42 -87v-168q0 -53 42 -87t99 -34t99 34t42 87v168zM623 946q0 -123 -59.5 -202.5t-182.5 -79.5t-182.5 79.5t-59.5 202.5t59.5 203t182.5 80t182.5 -80t59.5 -203z" />
<glyph unicode="&#xbb;" horiz-adv-x="915" d="M143 145l199 381l-199 381h113l219 -381l-219 -381h-113zM455 145l198 381l-198 381h112l219 -381l-219 -381h-112z" />
<glyph unicode="&#xbc;" horiz-adv-x="1478" d="M426 676h-102v528h-228v86h228v103h102v-717zM1120 1393h111l-873 -1393h-110zM1165 0v172h-321v86l325 459h99v-459h114v-86h-114v-172h-103zM1161 573l-221 -315h225v315h-4z" />
<glyph unicode="&#xbd;" horiz-adv-x="1531" d="M426 676h-102v528h-228v86h228v103h102v-717zM1120 1393h111l-873 -1393h-110zM1063 86h356v-86h-497v82l297 285q43 41 64.5 75.5t21.5 81.5q0 55 -33 90t-98 35q-63 0 -103.5 -38t-40.5 -105h-102q0 111 70.5 169t177.5 58q109 0 170 -56t61 -155q0 -72 -35 -125 t-78 -94l-231 -215v-2z" />
<glyph unicode="&#xbe;" horiz-adv-x="1546" d="M1188 1393h110l-872 -1393h-111zM268 999v86h152q37 0 57.5 21.5t20.5 54.5v66q0 47 -38 72.5t-91 25.5q-63 0 -98 -32.5t-40 -88.5h-102q0 41 17.5 78t48 65.5t75.5 45t101 16.5q109 0 169 -54.5t60 -140.5q0 -66 -27.5 -105.5t-74.5 -61.5q117 -41 116 -170 q0 -104 -71.5 -161t-182.5 -57q-102 0 -173.5 54.5t-75.5 171.5h100q6 -74 46 -108t103 -34q66 0 109 32t43 79v68q0 33 -20.5 55t-57.5 22h-166zM1233 0v172h-322v86l326 459h98v-459h115v-86h-115v-172h-102zM1229 573l-221 -315h225v315h-4z" />
<glyph unicode="&#xbf;" horiz-adv-x="997" d="M434 1044h174v-174h-174v174zM225 -2q0 -113 71 -186.5t196 -73.5q133 0 206.5 79t83.5 201h133q-6 -90 -40.5 -163.5t-90 -126t-131 -80t-164.5 -27.5q-90 0 -162.5 28.5t-124.5 79t-81 118t-29 147.5q0 127 53.5 212t128.5 144q45 37 80 68t56.5 60.5t33 63t11.5 76.5 v62h133v-62q0 -53 -12.5 -98t-37 -85t-62.5 -79t-87 -77q-86 -70 -125 -132.5t-39 -148.5z" />
<glyph unicode="&#xc0;" horiz-adv-x="1275" d="M930 362h-586l-123 -362h-151l481 1393h174l481 -1393h-153zM635 1233l-250 -748h504l-246 748h-8zM786 1530h-108l-215 250h155z" />
<glyph unicode="&#xc1;" horiz-adv-x="1275" d="M930 362h-586l-123 -362h-151l481 1393h174l481 -1393h-153zM635 1233l-250 -748h504l-246 748h-8zM659 1780h156l-215 -250h-108z" />
<glyph unicode="&#xc2;" horiz-adv-x="1275" d="M930 362h-586l-123 -362h-151l481 1393h174l481 -1393h-153zM635 1233l-250 -748h504l-246 748h-8zM496 1530h-107l174 250h154l174 -250h-109l-143 180z" />
<glyph unicode="&#xc3;" horiz-adv-x="1275" d="M930 362h-586l-123 -362h-151l481 1393h174l481 -1393h-153zM635 1233l-250 -748h504l-246 748h-8zM940 1724q0 -78 -41 -119.5t-115 -41.5q-41 0 -80.5 15t-78.5 33.5t-74 34t-64 15.5q-74 0 -73 -78h-74q0 78 41 120t115 42q39 0 79.5 -15.5t79.5 -34t74 -33.5t64 -15 q74 0 73 77h74z" />
<glyph unicode="&#xc4;" horiz-adv-x="1275" d="M930 362h-586l-123 -362h-151l481 1393h174l481 -1393h-153zM635 1233l-250 -748h504l-246 748h-8zM569 1569h-139v139h139v-139zM848 1569h-139v139h139v-139z" />
<glyph unicode="&#xc5;" horiz-adv-x="1275" d="M930 362h-586l-123 -362h-151l481 1393h174l481 -1393h-153zM635 1233l-250 -748h504l-246 748h-8zM821 1712q0 -70 -48 -123t-134 -53t-134 53t-48 123q0 68 48 122t134 54t134 -54t48 -122zM745 1712q0 43 -29.5 75t-76.5 32t-78 -32t-31 -75t31 -75.5t78 -32.5 t76.5 32.5t29.5 75.5z" />
<glyph unicode="&#xc6;" horiz-adv-x="1900" d="M1769 1393v-133h-708v-484h614v-133h-614v-510h708v-133h-851v365h-576l-176 -365h-156l676 1393h1083zM403 487h515v773h-140z" />
<glyph unicode="&#xc7;" horiz-adv-x="1296" d="M502 -184h123v112h123v-225h-246v113zM688 -31q-270 0 -411.5 182.5t-141.5 532.5q0 164 33 300t101.5 233.5t173 151.5t245.5 54q96 0 179 -28.5t146.5 -84t102.5 -134t49 -179.5h-143q-8 76 -38 132.5t-76 91t-105.5 52t-128.5 17.5q-84 0 -152.5 -30.5t-118 -83 t-77 -124t-27.5 -151.5v-409q0 -84 29.5 -156t80 -124t118 -81t143.5 -29q160 0 257 72t113 232h144q-8 -98 -46 -179.5t-102.5 -137.5t-153 -88t-194.5 -32z" />
<glyph unicode="&#xc8;" horiz-adv-x="1206" d="M203 1393h872v-133h-729v-484h635v-133h-635v-510h729v-133h-872v1393zM741 1530h-108l-215 250h155z" />
<glyph unicode="&#xc9;" horiz-adv-x="1206" d="M203 1393h872v-133h-729v-484h635v-133h-635v-510h729v-133h-872v1393zM682 1780h156l-215 -250h-109z" />
<glyph unicode="&#xca;" horiz-adv-x="1206" d="M203 1393h872v-133h-729v-484h635v-133h-635v-510h729v-133h-872v1393zM504 1530h-107l174 250h154l174 -250h-108l-144 180z" />
<glyph unicode="&#xcb;" horiz-adv-x="1206" d="M203 1393h872v-133h-729v-484h635v-133h-635v-510h729v-133h-872v1393zM580 1569h-140v139h140v-139zM858 1569h-139v139h139v-139z" />
<glyph unicode="&#xcc;" horiz-adv-x="548" d="M203 1393h143v-1393h-143v1393zM395 1530h-108l-215 250h155z" />
<glyph unicode="&#xcd;" horiz-adv-x="548" d="M203 1393h143v-1393h-143v1393zM344 1780h156l-215 -250h-109z" />
<glyph unicode="&#xce;" horiz-adv-x="548" d="M203 1393h143v-1393h-143v1393zM131 1530h-106l174 250h153l174 -250h-108l-144 180z" />
<glyph unicode="&#xcf;" horiz-adv-x="548" d="M203 1393h143v-1393h-143v1393zM203 1569h-140v139h140v-139zM481 1569h-139v139h139v-139z" />
<glyph unicode="&#xd0;" horiz-adv-x="1353" d="M350 133h287q207 0 310.5 94.5t103.5 264.5v409q0 170 -103.5 264.5t-310.5 94.5h-287v-510h352v-107h-352v-510zM207 1393h430q299 0 438 -169t139 -528q0 -358 -139 -527t-438 -169h-430v643h-146v107h146v643z" />
<glyph unicode="&#xd1;" horiz-adv-x="1411" d="M1067 162v1231h141v-1393h-227l-629 1233h-8v-1233h-141v1393h227l629 -1231h8zM1006 1724q0 -78 -41 -119.5t-115 -41.5q-41 0 -81 15t-79 33.5t-73.5 34t-63.5 15.5q-74 0 -74 -78h-73q0 78 40.5 120t114.5 42q39 0 80 -15.5t80 -34t73.5 -33.5t63.5 -15q74 0 74 77h74 z" />
<glyph unicode="&#xd2;" horiz-adv-x="1425" d="M1290 696q0 -162 -31.5 -295t-101.5 -229t-179.5 -149.5t-264.5 -53.5q-156 0 -265.5 53.5t-179 149.5t-101.5 229.5t-32 294.5q0 162 32 295t101.5 229.5t179 149.5t265.5 53t265 -53t179 -149.5t101.5 -229.5t31.5 -295zM713 102q88 0 163.5 27t131 77t87 121.5 t31.5 161.5v414q0 88 -31.5 160t-87 123t-131 77.5t-163.5 26.5q-90 0 -166 -26.5t-131.5 -77.5t-86 -123t-30.5 -160v-414q0 -90 30.5 -160.5t86 -121.5t131.5 -78t166 -27zM795 1552h-109l-215 250h156z" />
<glyph unicode="&#xd3;" horiz-adv-x="1425" d="M1290 696q0 -162 -31.5 -295t-101.5 -229t-179.5 -149.5t-264.5 -53.5q-156 0 -265.5 53.5t-179 149.5t-101.5 229.5t-32 294.5q0 162 32 295t101.5 229.5t179 149.5t265.5 53t265 -53t179 -149.5t101.5 -229.5t31.5 -295zM713 102q88 0 163.5 27t131 77t87 121.5 t31.5 161.5v414q0 88 -31.5 160t-87 123t-131 77.5t-163.5 26.5q-90 0 -166 -26.5t-131.5 -77.5t-86 -123t-30.5 -160v-414q0 -90 30.5 -160.5t86 -121.5t131.5 -78t166 -27zM791 1802h155l-215 -250h-108z" />
<glyph unicode="&#xd4;" horiz-adv-x="1425" d="M1290 696q0 -162 -31.5 -295t-101.5 -229t-179.5 -149.5t-264.5 -53.5q-156 0 -265.5 53.5t-179 149.5t-101.5 229.5t-32 294.5q0 162 32 295t101.5 229.5t179 149.5t265.5 53t265 -53t179 -149.5t101.5 -229.5t31.5 -295zM713 102q88 0 163.5 27t131 77t87 121.5 t31.5 161.5v414q0 88 -31.5 160t-87 123t-131 77.5t-163.5 26.5q-90 0 -166 -26.5t-131.5 -77.5t-86 -123t-30.5 -160v-414q0 -90 30.5 -160.5t86 -121.5t131.5 -78t166 -27zM569 1552h-106l174 250h154l174 -250h-109l-143 181z" />
<glyph unicode="&#xd5;" horiz-adv-x="1425" d="M1290 696q0 -162 -31.5 -295t-101.5 -229t-179.5 -149.5t-264.5 -53.5q-156 0 -265.5 53.5t-179 149.5t-101.5 229.5t-32 294.5q0 162 32 295t101.5 229.5t179 149.5t265.5 53t265 -53t179 -149.5t101.5 -229.5t31.5 -295zM713 102q88 0 163.5 27t131 77t87 121.5 t31.5 161.5v414q0 88 -31.5 160t-87 123t-131 77.5t-163.5 26.5q-90 0 -166 -26.5t-131.5 -77.5t-86 -123t-30.5 -160v-414q0 -90 30.5 -160.5t86 -121.5t131.5 -78t166 -27zM1014 1724q0 -78 -41 -119.5t-115 -41.5q-41 0 -81 15t-79 33.5t-73.5 34t-63.5 15.5 q-74 0 -74 -78h-73q0 78 41 120t114 42q39 0 80 -15.5t80 -34t74 -33.5t63 -15q74 0 74 77h74z" />
<glyph unicode="&#xd6;" horiz-adv-x="1425" d="M1290 696q0 -162 -31.5 -295t-101.5 -229t-179.5 -149.5t-264.5 -53.5q-156 0 -265.5 53.5t-179 149.5t-101.5 229.5t-32 294.5q0 162 32 295t101.5 229.5t179 149.5t265.5 53t265 -53t179 -149.5t101.5 -229.5t31.5 -295zM713 102q88 0 163.5 27t131 77t87 121.5 t31.5 161.5v414q0 88 -31.5 160t-87 123t-131 77.5t-163.5 26.5q-90 0 -166 -26.5t-131.5 -77.5t-86 -123t-30.5 -160v-414q0 -90 30.5 -160.5t86 -121.5t131.5 -78t166 -27zM643 1591h-139v140h139v-140zM922 1591h-140v140h140v-140z" />
<glyph unicode="&#xd7;" d="M1135 82l-82 -82l-439 438l-440 -440l-82 84l440 440l-440 441l82 81l440 -440l441 440l80 -81l-441 -441z" />
<glyph unicode="&#xd8;" horiz-adv-x="1425" d="M1290 696q0 -162 -31.5 -295t-101.5 -229t-179.5 -149.5t-264.5 -53.5q-80 0 -146.5 14.5t-124.5 41.5l-75 -156l-88 41l81 166q-119 92 -172 251.5t-53 368.5q0 162 32 295t101.5 229.5t179 149.5t265.5 53q166 0 286 -63l82 164l88 -41l-90 -180q111 -94 161 -250 t50 -357zM299 489q0 -92 33 -164.5t92 -123.5l514 1034q-47 27 -104.5 41t-120.5 14q-90 0 -166 -26.5t-131.5 -77.5t-86 -123t-30.5 -160v-414zM713 102q88 0 163.5 27t131 77t87 121.5t31.5 161.5v414q0 86 -28.5 154.5t-79.5 120.5l-514 -1031q90 -45 209 -45z" />
<glyph unicode="&#xd9;" horiz-adv-x="1388" d="M1057 1393h141v-897q0 -123 -37 -220.5t-103.5 -165t-159.5 -104.5t-204 -37t-204 37t-159.5 104.5t-103.5 165t-37 220.5v897h144v-912q0 -86 26.5 -156.5t74.5 -120.5t113.5 -77t145.5 -27t146.5 27t115 76t75 119.5t26.5 158.5v912zM807 1530h-109l-215 250h156z" />
<glyph unicode="&#xda;" horiz-adv-x="1388" d="M1057 1393h141v-897q0 -123 -37 -220.5t-103.5 -165t-159.5 -104.5t-204 -37t-204 37t-159.5 104.5t-103.5 165t-37 220.5v897h144v-912q0 -86 26.5 -156.5t74.5 -120.5t113.5 -77t145.5 -27t146.5 27t115 76t75 119.5t26.5 158.5v912zM756 1780h155l-215 -250h-108z" />
<glyph unicode="&#xdb;" horiz-adv-x="1388" d="M1057 1393h141v-897q0 -123 -37 -220.5t-103.5 -165t-159.5 -104.5t-204 -37t-204 37t-159.5 104.5t-103.5 165t-37 220.5v897h144v-912q0 -86 26.5 -156.5t74.5 -120.5t113.5 -77t145.5 -27t146.5 27t115 76t75 119.5t26.5 158.5v912zM551 1530h-107l174 250h154 l174 -250h-108l-144 180z" />
<glyph unicode="&#xdc;" horiz-adv-x="1388" d="M1057 1393h141v-897q0 -123 -37 -220.5t-103.5 -165t-159.5 -104.5t-204 -37t-204 37t-159.5 104.5t-103.5 165t-37 220.5v897h144v-912q0 -86 26.5 -156.5t74.5 -120.5t113.5 -77t145.5 -27t146.5 27t115 76t75 119.5t26.5 158.5v912zM625 1569h-140v139h140v-139z M903 1569h-139v139h139v-139z" />
<glyph unicode="&#xdd;" horiz-adv-x="1175" d="M57 1393h160l371 -697l377 697h155l-461 -840v-553h-143v553zM690 1739h156l-215 -250h-109z" />
<glyph unicode="&#xde;" horiz-adv-x="1232" d="M203 1393h143v-260h383q217 0 306 -102.5t89 -321.5q0 -119 -27.5 -203t-79.5 -136.5t-129 -76t-177 -23.5h-365v-270h-143v1393zM776 403q86 0 140.5 51.5t54.5 129.5v243q0 78 -51.5 125t-143.5 47h-430v-596h430z" />
<glyph unicode="&#xdf;" horiz-adv-x="1114" d="M510 88h14q143 0 231.5 66.5t88.5 177.5v188q0 63 -35 109.5t-107 46.5h-192v117h170q72 0 107.5 39.5t35.5 103.5v176q0 49 -19.5 85t-52 60.5t-75.5 37t-92 12.5q-113 0 -191 -66.5t-78 -196.5v-1044h-133v1044q0 72 28 140.5t80 122t127 85t167 31.5t163.5 -28.5 t119.5 -77.5t73 -116.5t25 -143.5q0 -121 -45.5 -198t-147.5 -124q104 -31 158.5 -115.5t54.5 -230.5q0 -96 -31.5 -174t-91 -132t-143.5 -84t-189 -30h-20v119z" />
<glyph unicode="&#xe0;" horiz-adv-x="1105" d="M776 717q0 70 -18.5 115t-50 71.5t-77.5 37.5t-102 11q-111 0 -178 -51t-67 -158h-133q0 74 27.5 133.5t78.5 102.5t122 66.5t154 23.5q84 0 154 -21.5t119 -64.5t75.5 -110.5t26.5 -159.5v-596h154v-117h-268l-5 203h-6q-43 -111 -129 -169.5t-202 -58.5 q-78 0 -144.5 24t-107.5 69q-41 41 -62.5 99t-21.5 120q0 123 64.5 203.5t201.5 93.5l395 37v96zM342 467q-47 -4 -66.5 -29.5t-19.5 -72.5v-115q0 -80 58.5 -119t158.5 -39q70 0 126 26.5t96 74t60.5 115t20.5 147.5v51zM575 1174h-108l-215 249h156z" />
<glyph unicode="&#xe1;" horiz-adv-x="1105" d="M776 717q0 70 -18.5 115t-50 71.5t-77.5 37.5t-102 11q-111 0 -178 -51t-67 -158h-133q0 74 27.5 133.5t78.5 102.5t122 66.5t154 23.5q84 0 154 -21.5t119 -64.5t75.5 -110.5t26.5 -159.5v-596h154v-117h-268l-5 203h-6q-43 -111 -129 -169.5t-202 -58.5 q-78 0 -144.5 24t-107.5 69q-41 41 -62.5 99t-21.5 120q0 123 64.5 203.5t201.5 93.5l395 37v96zM342 467q-47 -4 -66.5 -29.5t-19.5 -72.5v-115q0 -80 58.5 -119t158.5 -39q70 0 126 26.5t96 74t60.5 115t20.5 147.5v51zM627 1423h155l-215 -249h-108z" />
<glyph unicode="&#xe2;" horiz-adv-x="1105" d="M776 717q0 70 -18.5 115t-50 71.5t-77.5 37.5t-102 11q-111 0 -178 -51t-67 -158h-133q0 74 27.5 133.5t78.5 102.5t122 66.5t154 23.5q84 0 154 -21.5t119 -64.5t75.5 -110.5t26.5 -159.5v-596h154v-117h-268l-5 203h-6q-43 -111 -129 -169.5t-202 -58.5 q-78 0 -144.5 24t-107.5 69q-41 41 -62.5 99t-21.5 120q0 123 64.5 203.5t201.5 93.5l395 37v96zM342 467q-47 -4 -66.5 -29.5t-19.5 -72.5v-115q0 -80 58.5 -119t158.5 -39q70 0 126 26.5t96 74t60.5 115t20.5 147.5v51zM379 1174h-107l174 249h154l174 -249h-108l-144 180 z" />
<glyph unicode="&#xe3;" horiz-adv-x="1105" d="M776 717q0 70 -18.5 115t-50 71.5t-77.5 37.5t-102 11q-111 0 -178 -51t-67 -158h-133q0 74 27.5 133.5t78.5 102.5t122 66.5t154 23.5q84 0 154 -21.5t119 -64.5t75.5 -110.5t26.5 -159.5v-596h154v-117h-268l-5 203h-6q-43 -111 -129 -169.5t-202 -58.5 q-78 0 -144.5 24t-107.5 69q-41 41 -62.5 99t-21.5 120q0 123 64.5 203.5t201.5 93.5l395 37v96zM342 467q-47 -4 -66.5 -29.5t-19.5 -72.5v-115q0 -80 58.5 -119t158.5 -39q70 0 126 26.5t96 74t60.5 115t20.5 147.5v51zM831 1376q0 -78 -40.5 -120t-114.5 -42 q-41 0 -81 15.5t-79 34t-73.5 34t-63.5 15.5q-74 0 -74 -78h-74q0 78 41 120t115 42q39 0 80 -15.5t80 -34t73.5 -34t63.5 -15.5q74 0 74 78h73z" />
<glyph unicode="&#xe4;" horiz-adv-x="1105" d="M776 717q0 70 -18.5 115t-50 71.5t-77.5 37.5t-102 11q-111 0 -178 -51t-67 -158h-133q0 74 27.5 133.5t78.5 102.5t122 66.5t154 23.5q84 0 154 -21.5t119 -64.5t75.5 -110.5t26.5 -159.5v-596h154v-117h-268l-5 203h-6q-43 -111 -129 -169.5t-202 -58.5 q-78 0 -144.5 24t-107.5 69q-41 41 -62.5 99t-21.5 120q0 123 64.5 203.5t201.5 93.5l395 37v96zM342 467q-47 -4 -66.5 -29.5t-19.5 -72.5v-115q0 -80 58.5 -119t158.5 -39q70 0 126 26.5t96 74t60.5 115t20.5 147.5v51zM455 1212h-140v140h140v-140zM733 1212h-139v140 h139v-140z" />
<glyph unicode="&#xe5;" horiz-adv-x="1105" d="M776 717q0 70 -18.5 115t-50 71.5t-77.5 37.5t-102 11q-111 0 -178 -51t-67 -158h-133q0 74 27.5 133.5t78.5 102.5t122 66.5t154 23.5q84 0 154 -21.5t119 -64.5t75.5 -110.5t26.5 -159.5v-596h154v-117h-268l-5 203h-6q-43 -111 -129 -169.5t-202 -58.5 q-78 0 -144.5 24t-107.5 69q-41 41 -62.5 99t-21.5 120q0 123 64.5 203.5t201.5 93.5l395 37v96zM342 467q-47 -4 -66.5 -29.5t-19.5 -72.5v-115q0 -80 58.5 -119t158.5 -39q70 0 126 26.5t96 74t60.5 115t20.5 147.5v51zM713 1333q0 -70 -48.5 -123t-134.5 -53t-134 53.5 t-48 122.5q0 68 48 122t134 54t134.5 -54t48.5 -122zM637 1333q0 43 -29.5 75t-77.5 32q-47 0 -77.5 -32t-30.5 -75t30.5 -75.5t77.5 -32.5t77 32.5t30 75.5z" />
<glyph unicode="&#xe6;" horiz-adv-x="1720" d="M354 481q-47 0 -72.5 -27.5t-25.5 -74.5v-129q0 -80 58.5 -119t158.5 -39q70 0 126 26.5t96 74t60.5 115t20.5 147.5v26h-422zM1458 676q0 63 -22.5 115.5t-60.5 87t-88 54t-103 19.5t-103.5 -19.5t-88.5 -54t-60.5 -87t-22.5 -115.5v-78h549v78zM819 176 q-70 -115 -161 -158t-207 -43q-78 0 -143.5 25t-106.5 70q-41 41 -63.5 100t-22.5 137q0 53 16 105.5t50 93.5t86 66.5t126 25.5h383v119q0 70 -18.5 115t-50 71.5t-77.5 37.5t-102 11q-111 0 -178 -51t-67 -158h-133q0 74 27.5 133.5t78.5 102.5t122 66.5t154 23.5 q117 0 201 -40t129 -124q53 78 135 121t187 43q102 0 180 -41t131 -109.5t80 -158.5t27 -191v-88h-693v-112q0 -63 24.5 -114.5t64.5 -87.5t89.5 -55.5t100.5 -19.5q102 0 179 54.5t91 175.5h133q-10 -84 -46 -148.5t-91 -109t-123.5 -67t-144.5 -22.5q-125 0 -213 51.5 t-148 149.5h-6z" />
<glyph unicode="&#xe7;" horiz-adv-x="1071" d="M817 713q-6 63 -29.5 108t-60.5 75t-84 43t-98 13q-53 0 -102.5 -19.5t-87.5 -55t-61.5 -88t-23.5 -115.5v-303q0 -59 21.5 -110.5t59.5 -88.5t88 -58.5t108 -21.5q55 0 104 16.5t87 48t60.5 78t26.5 105.5h133q-10 -92 -45.5 -160.5t-91 -114t-125 -68t-145.5 -22.5 q-111 0 -190.5 41t-132 113t-77 171t-24.5 216q0 125 27.5 227.5t81 174t134.5 111.5t185 40q80 0 148.5 -22.5t121 -67.5t86 -111.5t39.5 -154.5h-133zM369 -184h123v112h122v-225h-245v113z" />
<glyph unicode="&#xe8;" horiz-adv-x="1099" d="M838 676q0 63 -22.5 115.5t-61.5 87t-91.5 54t-109.5 19.5t-109.5 -19.5t-91.5 -54t-61.5 -87t-22.5 -115.5v-78h570v78zM971 322q-10 -84 -46 -148.5t-92.5 -109t-127 -67t-150.5 -22.5q-111 0 -192.5 41t-134 113t-78 172t-25.5 221q0 119 26.5 219.5t81 173t134 113.5 t186.5 41q106 0 186 -41t133.5 -109.5t81 -158.5t27.5 -191v-88h-713v-112q0 -63 24.5 -114.5t64.5 -87.5t92.5 -55.5t107.5 -19.5q111 0 188.5 54.5t92.5 175.5h133zM625 1174h-109l-215 249h156z" />
<glyph unicode="&#xe9;" horiz-adv-x="1099" d="M838 676q0 63 -22.5 115.5t-61.5 87t-91.5 54t-109.5 19.5t-109.5 -19.5t-91.5 -54t-61.5 -87t-22.5 -115.5v-78h570v78zM971 322q-10 -84 -46 -148.5t-92.5 -109t-127 -67t-150.5 -22.5q-111 0 -192.5 41t-134 113t-78 172t-25.5 221q0 119 26.5 219.5t81 173t134 113.5 t186.5 41q106 0 186 -41t133.5 -109.5t81 -158.5t27.5 -191v-88h-713v-112q0 -63 24.5 -114.5t64.5 -87.5t92.5 -55.5t107.5 -19.5q111 0 188.5 54.5t92.5 175.5h133zM657 1423h156l-215 -249h-109z" />
<glyph unicode="&#xea;" horiz-adv-x="1099" d="M838 676q0 63 -22.5 115.5t-61.5 87t-91.5 54t-109.5 19.5t-109.5 -19.5t-91.5 -54t-61.5 -87t-22.5 -115.5v-78h570v78zM971 322q-10 -84 -46 -148.5t-92.5 -109t-127 -67t-150.5 -22.5q-111 0 -192.5 41t-134 113t-78 172t-25.5 221q0 119 26.5 219.5t81 173t134 113.5 t186.5 41q106 0 186 -41t133.5 -109.5t81 -158.5t27.5 -191v-88h-713v-112q0 -63 24.5 -114.5t64.5 -87.5t92.5 -55.5t107.5 -19.5q111 0 188.5 54.5t92.5 175.5h133zM412 1174h-107l174 249h154l174 -249h-109l-143 180z" />
<glyph unicode="&#xeb;" horiz-adv-x="1099" d="M838 676q0 63 -22.5 115.5t-61.5 87t-91.5 54t-109.5 19.5t-109.5 -19.5t-91.5 -54t-61.5 -87t-22.5 -115.5v-78h570v78zM971 322q-10 -84 -46 -148.5t-92.5 -109t-127 -67t-150.5 -22.5q-111 0 -192.5 41t-134 113t-78 172t-25.5 221q0 119 26.5 219.5t81 173t134 113.5 t186.5 41q106 0 186 -41t133.5 -109.5t81 -158.5t27.5 -191v-88h-713v-112q0 -63 24.5 -114.5t64.5 -87.5t92.5 -55.5t107.5 -19.5q111 0 188.5 54.5t92.5 175.5h133zM479 1212h-139v140h139v-140zM758 1212h-140v140h140v-140z" />
<glyph unicode="&#xec;" horiz-adv-x="497" d="M383 1174h-109l-215 249h156zM182 0v1044h133v-1044h-133z" />
<glyph unicode="&#xed;" horiz-adv-x="497" d="M315 1423h156l-215 -249h-109zM182 0v1044h133v-1044h-133z" />
<glyph unicode="&#xee;" horiz-adv-x="497" d="M104 1174h-106l174 249h154l174 -249h-109l-143 180zM182 0v1044h133v-1044h-133z" />
<glyph unicode="&#xef;" horiz-adv-x="497" d="M180 1212h-139v140h139v-140zM459 1212h-140v140h140v-140zM182 0v1044h133v-1044h-133z" />
<glyph unicode="&#xf0;" horiz-adv-x="1148" d="M881 602q0 61 -23.5 110.5t-65.5 85.5t-97.5 54t-119.5 18q-66 0 -121 -18t-96 -54t-64.5 -85t-23.5 -111v-242q0 -61 23.5 -110t64.5 -85t96.5 -54.5t120.5 -18.5q66 0 121.5 18.5t96.5 54.5t64.5 85t23.5 110v242zM590 1133h-258v81h207l-115 179h147l115 -179h262v-81 h-209l125 -183q20 -31 48 -77t52.5 -104t42 -131t17.5 -157q0 -113 -26.5 -206t-82 -159.5t-140.5 -103.5t-200 -37t-199.5 37t-140 103.5t-82 160t-26.5 205.5q0 111 29.5 204t84 159.5t131.5 104.5t173 38t160 -29z" />
<glyph unicode="&#xf1;" horiz-adv-x="1148" d="M844 672q0 129 -50.5 204.5t-183.5 75.5q-66 0 -119 -26.5t-93 -72.5t-61.5 -111.5t-21.5 -141.5v-600h-133v1044h133v-182q43 98 123 152.5t199 54.5q76 0 138.5 -20.5t107.5 -65.5t69.5 -115.5t24.5 -171.5v-696h-133v672zM877 1376q0 -78 -41 -120t-115 -42 q-41 0 -81 15.5t-79 34t-73.5 34t-63.5 15.5q-74 0 -74 -78h-74q0 78 41 120t115 42q39 0 80 -15.5t80 -34t73.5 -34t63.5 -15.5q74 0 74 78h74z" />
<glyph unicode="&#xf2;" horiz-adv-x="1146" d="M125 522q0 119 26.5 219.5t82 173t140.5 113.5t199 41q115 0 200 -41t140.5 -113.5t82 -173t26.5 -219.5t-26.5 -219t-82 -173t-140.5 -114t-200 -41t-199.5 41t-140 114t-82 173t-26.5 219zM879 680q0 61 -24 111.5t-64.5 87t-96 56t-121.5 19.5t-121 -19.5t-96 -56 t-64.5 -87t-23.5 -111.5v-315q0 -61 23.5 -111.5t64.5 -87.5t96.5 -56.5t120.5 -19.5q66 0 121.5 19.5t96 56.5t64.5 87t24 112v315zM621 1174h-109l-215 249h156z" />
<glyph unicode="&#xf3;" horiz-adv-x="1146" d="M125 522q0 119 26.5 219.5t82 173t140.5 113.5t199 41q115 0 200 -41t140.5 -113.5t82 -173t26.5 -219.5t-26.5 -219t-82 -173t-140.5 -114t-200 -41t-199.5 41t-140 114t-82 173t-26.5 219zM879 680q0 61 -24 111.5t-64.5 87t-96 56t-121.5 19.5t-121 -19.5t-96 -56 t-64.5 -87t-23.5 -111.5v-315q0 -61 23.5 -111.5t64.5 -87.5t96.5 -56.5t120.5 -19.5q66 0 121.5 19.5t96 56.5t64.5 87t24 112v315zM676 1423h155l-215 -249h-108z" />
<glyph unicode="&#xf4;" horiz-adv-x="1146" d="M125 522q0 119 26.5 219.5t82 173t140.5 113.5t199 41q115 0 200 -41t140.5 -113.5t82 -173t26.5 -219.5t-26.5 -219t-82 -173t-140.5 -114t-200 -41t-199.5 41t-140 114t-82 173t-26.5 219zM879 680q0 61 -24 111.5t-64.5 87t-96 56t-121.5 19.5t-121 -19.5t-96 -56 t-64.5 -87t-23.5 -111.5v-315q0 -61 23.5 -111.5t64.5 -87.5t96.5 -56.5t120.5 -19.5q66 0 121.5 19.5t96 56.5t64.5 87t24 112v315zM430 1174h-106l174 249h153l174 -249h-108l-144 180z" />
<glyph unicode="&#xf5;" horiz-adv-x="1146" d="M125 522q0 119 26.5 219.5t82 173t140.5 113.5t199 41q115 0 200 -41t140.5 -113.5t82 -173t26.5 -219.5t-26.5 -219t-82 -173t-140.5 -114t-200 -41t-199.5 41t-140 114t-82 173t-26.5 219zM879 680q0 61 -24 111.5t-64.5 87t-96 56t-121.5 19.5t-121 -19.5t-96 -56 t-64.5 -87t-23.5 -111.5v-315q0 -61 23.5 -111.5t64.5 -87.5t96.5 -56.5t120.5 -19.5q66 0 121.5 19.5t96 56.5t64.5 87t24 112v315zM872 1376q0 -78 -40.5 -120t-114.5 -42q-41 0 -81 15.5t-79 34t-73.5 34t-63.5 15.5q-74 0 -74 -78h-74q0 78 41 120t115 42q39 0 80 -15.5 t80 -34t73.5 -34t63.5 -15.5q74 0 74 78h73z" />
<glyph unicode="&#xf6;" horiz-adv-x="1146" d="M125 522q0 119 26.5 219.5t82 173t140.5 113.5t199 41q115 0 200 -41t140.5 -113.5t82 -173t26.5 -219.5t-26.5 -219t-82 -173t-140.5 -114t-200 -41t-199.5 41t-140 114t-82 173t-26.5 219zM879 680q0 61 -24 111.5t-64.5 87t-96 56t-121.5 19.5t-121 -19.5t-96 -56 t-64.5 -87t-23.5 -111.5v-315q0 -61 23.5 -111.5t64.5 -87.5t96.5 -56.5t120.5 -19.5q66 0 121.5 19.5t96 56.5t64.5 87t24 112v315zM504 1212h-139v140h139v-140zM782 1212h-139v140h139v-140z" />
<glyph unicode="&#xf7;" d="M1137 469h-1045v106h1045v-106zM698 0h-168v170h168v-170zM698 874h-168v170h168v-170z" />
<glyph unicode="&#xf8;" horiz-adv-x="1146" d="M717 926q-68 29 -144 28q-66 0 -121 -19.5t-96 -56t-64.5 -87t-23.5 -111.5v-315q0 -119 80 -195zM432 117q59 -27 141 -27q66 0 121.5 19.5t96 56.5t64.5 87t24 112v315q0 117 -80 190zM852 977q86 -72 128 -189.5t42 -265.5q0 -119 -26.5 -219t-82 -173t-140.5 -114 t-200 -41q-55 0 -103 10.5t-89 26.5l-74 -149l-88 43l78 157q-88 72 -130 191t-42 268q0 119 26.5 219.5t82 173t140.5 113.5t199 41q106 0 195 -39l74 152l88 -43z" />
<glyph unicode="&#xf9;" horiz-adv-x="1140" d="M305 371q0 -129 49 -204t178 -75q63 0 116.5 25.5t92.5 73t61.5 112t22.5 141.5v600h133v-1044h-133v182q-43 -98 -121.5 -152.5t-195.5 -54.5q-74 0 -135.5 20.5t-106.5 65.5t-69.5 116t-24.5 171v696h133v-673zM682 1174h-109l-215 249h156z" />
<glyph unicode="&#xfa;" horiz-adv-x="1140" d="M305 371q0 -129 49 -204t178 -75q63 0 116.5 25.5t92.5 73t61.5 112t22.5 141.5v600h133v-1044h-133v182q-43 -98 -121.5 -152.5t-195.5 -54.5q-74 0 -135.5 20.5t-106.5 65.5t-69.5 116t-24.5 171v696h133v-673zM635 1423h156l-216 -249h-108z" />
<glyph unicode="&#xfb;" horiz-adv-x="1140" d="M305 371q0 -129 49 -204t178 -75q63 0 116.5 25.5t92.5 73t61.5 112t22.5 141.5v600h133v-1044h-133v182q-43 -98 -121.5 -152.5t-195.5 -54.5q-74 0 -135.5 20.5t-106.5 65.5t-69.5 116t-24.5 171v696h133v-673zM422 1174h-107l174 249h154l174 -249h-108l-144 180z" />
<glyph unicode="&#xfc;" horiz-adv-x="1140" d="M305 371q0 -129 49 -204t178 -75q63 0 116.5 25.5t92.5 73t61.5 112t22.5 141.5v600h133v-1044h-133v182q-43 -98 -121.5 -152.5t-195.5 -54.5q-74 0 -135.5 20.5t-106.5 65.5t-69.5 116t-24.5 171v696h133v-673zM496 1212h-140v140h140v-140zM774 1212h-139v140h139 v-140z" />
<glyph unicode="&#xfd;" horiz-adv-x="1044" d="M530 195l301 849h148l-512 -1392h-313v117h221l84 231l-387 1044h153l297 -849h8zM612 1423h156l-215 -249h-109z" />
<glyph unicode="&#xfe;" horiz-adv-x="1198" d="M315 436q0 -74 21.5 -137t63.5 -109.5t100.5 -72t132.5 -25.5q70 0 124 21.5t93 58.5t59.5 86t20.5 107v315q0 57 -20.5 106.5t-59.5 86t-93.5 58t-123.5 21.5q-74 0 -132.5 -25.5t-100.5 -71.5t-63.5 -109.5t-21.5 -137.5v-172zM182 -348v1741h133v-529q102 205 342 205 q100 0 178 -40t131.5 -112.5t80 -173t26.5 -221.5t-26.5 -222t-79 -173t-130 -112t-180.5 -40q-111 0 -200.5 51.5t-141.5 153.5v-528h-133z" />
<glyph unicode="&#xff;" horiz-adv-x="1044" d="M530 195l301 849h148l-512 -1392h-313v117h221l84 231l-387 1044h153l297 -849h8zM457 1212h-140v140h140v-140zM735 1212h-139v140h139v-140z" />
<glyph unicode="&#x152;" horiz-adv-x="2129" d="M713 1290q-90 0 -166 -26.5t-131.5 -77.5t-86 -123t-30.5 -160v-414q0 -90 30.5 -160.5t86 -121.5t131.5 -78t166 -27q84 0 158.5 27t132 75t90 117.5t32.5 155.5v438q0 86 -32.5 156t-90 118t-132 74.5t-158.5 26.5zM713 -31q-156 0 -265.5 53.5t-179 149.5 t-101.5 229.5t-32 294.5q0 162 32 295t101.5 229.5t179 149.5t265.5 53q139 0 240.5 -44t172.5 -126v140h873v-133h-729v-484h635v-133h-635v-510h729v-133h-873v139q-72 -82 -173 -126t-240 -44z" />
<glyph unicode="&#x153;" horiz-adv-x="1843" d="M942 168q-53 -90 -146.5 -141.5t-222.5 -51.5q-115 0 -199.5 41t-140 114t-82 173t-26.5 219t26.5 219.5t82 173t140.5 113.5t199 41q131 0 225.5 -51t147.5 -144q53 92 141.5 143.5t208.5 51.5q106 0 186.5 -41t133.5 -109.5t80.5 -158.5t27.5 -191v-88h-714v-112 q0 -63 24.5 -114.5t65.5 -87.5t93 -55.5t107 -19.5q111 0 189 54.5t92 175.5h133q-10 -84 -46 -148.5t-92 -109t-127 -67t-151 -22.5q-127 0 -216 51.5t-140 141.5zM879 680q0 61 -24 111.5t-64.5 87t-96 56t-121.5 19.5t-121 -19.5t-96 -56t-64.5 -87t-23.5 -111.5v-315 q0 -61 23.5 -111.5t64.5 -87.5t96.5 -56.5t120.5 -19.5q66 0 121.5 19.5t96 56.5t64.5 87t24 112v315zM1581 676q0 63 -22.5 115.5t-61.5 87t-91 54t-110 19.5q-57 0 -109 -19.5t-91 -54t-62.5 -87t-23.5 -115.5v-78h571v78z" />
<glyph unicode="&#x178;" horiz-adv-x="1175" d="M57 1393h160l371 -697l377 697h155l-461 -840v-553h-143v553zM518 1569h-139v139h139v-139zM797 1569h-140v139h140v-139z" />
<glyph unicode="&#x2c6;" horiz-adv-x="585" d="M147 1174h-106l174 249h154l174 -249h-109l-143 180z" />
<glyph unicode="&#x2da;" horiz-adv-x="634" d="M500 1333q0 -70 -48.5 -123t-134.5 -53t-134 53.5t-48 122.5q0 68 48 122t134 54t134.5 -54t48.5 -122zM424 1333q0 43 -29.5 75t-77.5 32q-47 0 -77.5 -32t-30.5 -75t30.5 -75.5t77.5 -32.5t77 32.5t30 75.5z" />
<glyph unicode="&#x2dc;" horiz-adv-x="606" d="M604 1376q0 -78 -41 -120t-114 -42q-41 0 -81 15.5t-79 34t-74 34t-63 15.5q-74 0 -74 -78h-74q0 78 41 120t115 42q39 0 80 -15.5t79.5 -34t73.5 -34t64 -15.5q74 0 73 78h74z" />
<glyph unicode="&#x2000;" horiz-adv-x="944" />
<glyph unicode="&#x2001;" horiz-adv-x="1888" />
<glyph unicode="&#x2002;" horiz-adv-x="1024" />
<glyph unicode="&#x2003;" horiz-adv-x="2048" />
<glyph unicode="&#x2004;" horiz-adv-x="681" />
<glyph unicode="&#x2005;" horiz-adv-x="512" />
<glyph unicode="&#x2006;" horiz-adv-x="314" />
<glyph unicode="&#x2007;" horiz-adv-x="314" />
<glyph unicode="&#x2008;" horiz-adv-x="236" />
<glyph unicode="&#x2009;" horiz-adv-x="245" />
<glyph unicode="&#x200a;" horiz-adv-x="153" />
<glyph unicode="&#x2010;" horiz-adv-x="901" d="M164 618h573v-126h-573v126z" />
<glyph unicode="&#x2011;" horiz-adv-x="901" d="M164 618h573v-126h-573v126z" />
<glyph unicode="&#x2012;" horiz-adv-x="901" d="M164 618h573v-126h-573v126z" />
<glyph unicode="&#x2013;" horiz-adv-x="1290" d="M164 618h962v-126h-962v126z" />
<glyph unicode="&#x2014;" horiz-adv-x="2252" d="M164 618h1925v-126h-1925v126z" />
<glyph unicode="&#x2018;" horiz-adv-x="499" d="M160 1219l100 174h74l-94 -174h94v-175h-174v175z" />
<glyph unicode="&#x2019;" horiz-adv-x="483" d="M340 1219l-100 -175h-74l94 175h-94v174h174v-174z" />
<glyph unicode="&#x201a;" horiz-adv-x="501" d="M338 0l-100 -174h-74l94 174h-94v174h174v-174z" />
<glyph unicode="&#x201c;" horiz-adv-x="827" d="M487 1219l101 174h74l-95 -174h95v-175h-175v175zM160 1219l100 174h74l-94 -174h94v-175h-174v175z" />
<glyph unicode="&#x201d;" horiz-adv-x="811" d="M340 1219l-100 -175h-74l94 175h-94v174h174v-174zM668 1219l-101 -175h-73l94 175h-94v174h174v-174z" />
<glyph unicode="&#x201e;" horiz-adv-x="829" d="M338 0l-100 -174h-74l94 174h-94v174h174v-174zM666 0l-101 -174h-73l94 174h-94v174h174v-174z" />
<glyph unicode="&#x2020;" horiz-adv-x="987" d="M84 1044h348v349h123v-349h348v-108h-348v-1120h-123v1120h-348v108z" />
<glyph unicode="&#x2021;" horiz-adv-x="1138" d="M160 272h348v664h-348v108h348v349h123v-349h348v-108h-348v-664h348v-108h-348v-348h-123v348h-348v108z" />
<glyph unicode="&#x2022;" horiz-adv-x="1091" d="M199 696q0 72 26.5 135.5t73.5 110.5t110.5 74.5t135.5 27.5t135 -27.5t110.5 -74.5t75 -110.5t27.5 -135.5t-27.5 -135t-75 -110.5t-111 -74t-134.5 -26.5q-72 0 -135.5 26.5t-110.5 74t-73.5 110.5t-26.5 135z" />
<glyph unicode="&#x2026;" horiz-adv-x="1546" d="M338 0h-174v174h174v-174zM860 0h-174v174h174v-174zM1382 0h-174v174h174v-174z" />
<glyph unicode="&#x202f;" horiz-adv-x="377" />
<glyph unicode="&#x2030;" horiz-adv-x="2269" d="M1180 1393h110l-872 -1393h-111zM629 1034q0 -78 -12.5 -146.5t-43 -119.5t-81 -80t-125.5 -29q-76 0 -126.5 29t-81 80t-43 119.5t-12.5 146.5t12.5 146.5t43 119t81 80t126.5 29.5t126 -29.5t80.5 -80t43 -119t12.5 -146.5zM367 743q72 0 112.5 40t40.5 112v279 q0 72 -41 111.5t-112 39.5q-72 0 -113 -40t-41 -111v-279q0 -72 41 -112t113 -40zM1493 358q0 -78 -12.5 -146.5t-43 -119.5t-80.5 -79.5t-126 -28.5t-126 28.5t-81 79.5t-43 120t-12 146q0 78 12 146.5t43 119t81 80t126 29.5t126 -29.5t80.5 -80t43 -119t12.5 -146.5z M1231 68q72 0 112.5 39.5t40.5 111.5v279q0 72 -40.5 111.5t-112.5 39.5t-113 -40t-41 -111v-279q0 -72 41 -111.5t113 -39.5zM2167 358q0 -78 -12.5 -146.5t-43 -119.5t-81 -79.5t-125.5 -28.5q-76 0 -126 28.5t-81 79.5t-43.5 120t-12.5 146q0 78 12.5 146.5t43.5 119 t81 80t126 29.5t126 -29.5t80.5 -80t43 -119t12.5 -146.5zM1905 68q72 0 112.5 39.5t40.5 111.5v279q0 72 -41 111.5t-112 39.5q-72 0 -113 -40t-41 -111v-279q0 -72 41 -111.5t113 -39.5z" />
<glyph unicode="&#x2039;" horiz-adv-x="604" d="M348 145l-219 381l219 381h113l-199 -381l199 -381h-113z" />
<glyph unicode="&#x203a;" horiz-adv-x="604" d="M143 145l199 381l-199 381h113l219 -381l-219 -381h-113z" />
<glyph unicode="&#x2044;" horiz-adv-x="204" d="M483 1393h111l-873 -1393h-110z" />
<glyph unicode="&#x205f;" horiz-adv-x="472" />
<glyph unicode="&#x20ac;" d="M96 872h117q12 119 44 219.5t90.5 174t146.5 115.5t213 42q184 0 294.5 -103t126.5 -284h-133q-16 129 -90 199t-215 70q-84 0 -146.5 -31t-103.5 -85t-61.5 -126t-20.5 -152v-39h463l-35 -100h-428v-145h381l-34 -101h-347v-45q0 -80 22.5 -151.5t64.5 -124.5t104.5 -85 t142.5 -32q274 0 305 287h133q-16 -190 -129.5 -298t-306.5 -108q-113 0 -197.5 39t-144 112t-93.5 175t-46 231h-152l35 101h109v145h-144z" />
<glyph unicode="&#x2122;" horiz-adv-x="1712" d="M143 1393h521v-86h-209v-611h-103v611h-209v86zM1352 1393h178v-697h-103v607l-217 -607h-92l-215 607v-607h-102v697h182l184 -541z" />
<glyph unicode="&#x2264;" d="M1133 0h-1045v106h1045v-106zM1133 924l-924 -295l924 -295v-121l-1045 342v147l1045 342v-120z" />
<glyph unicode="&#x2265;" d="M96 106h1045v-106h-1045v106zM96 1044l1045 -342v-147l-1045 -342v121l924 295l-924 295v120z" />
<glyph unicode="&#x25fc;" horiz-adv-x="1044" d="M0 1044h1044v-1044h-1044v1044z" />
</font>
</defs>
</svg>
